<?xml version="1.0" encoding="UTF-8" standalone="no"?>
<!-- Created with Inkscape (http://www.inkscape.org/) -->

<svg
   width="300"
   height="300"
   viewBox="0 0 79.374996 79.375002"
   version="1.1"
   id="svg1"
   xml:space="preserve"
   inkscape:version="1.3.1 (91b66b0783, 2023-11-16)"
   sodipodi:docname="icon.svg"
   xmlns:inkscape="http://www.inkscape.org/namespaces/inkscape"
   xmlns:sodipodi="http://sodipodi.sourceforge.net/DTD/sodipodi-0.dtd"
   xmlns="http://www.w3.org/2000/svg"
   xmlns:svg="http://www.w3.org/2000/svg"><sodipodi:namedview
     id="namedview1"
     pagecolor="#ffffff"
     bordercolor="#000000"
     borderopacity="0.25"
     inkscape:showpageshadow="2"
     inkscape:pageopacity="0.0"
     inkscape:pagecheckerboard="0"
     inkscape:deskcolor="#d1d1d1"
     inkscape:document-units="mm"
     inkscape:zoom="2.175463"
     inkscape:cx="68.261332"
     inkscape:cy="157.43775"
     inkscape:window-width="2463"
     inkscape:window-height="1417"
     inkscape:window-x="89"
     inkscape:window-y="-8"
     inkscape:window-maximized="1"
     inkscape:current-layer="layer4" /><defs
     id="defs1" /><g
     inkscape:groupmode="layer"
     id="layer5"
     inkscape:label="head"><path
       id="path5"
       style="fill:#b3b3b3;stroke-width:0.264583"
       d="M 39.6875,2.9104167 V 42.006222 L 51.703304,15.610417 h 0.02894 c 0.0013,-0.02065 1.628024,-3.807438 1.739625,-5.408764 0.08349,-1.198038 -0.461667,-7.278834 -0.461667,-7.278834 l -10.676868,-0.00982 v -0.00258 z"
       sodipodi:nodetypes="ccccscccc" /><path
       id="path5-9"
       style="fill:#e6e6e6;stroke-width:0.267504"
       d="M 39.71395,2.9104167 V 42.270879 L 27.513832,15.696387 h -0.02941 c -0.0013,-0.02075 -1.652993,-3.833208 -1.766306,-5.445378 -0.08477,-1.2061468 0.468746,-7.3281063 0.468746,-7.3281063 l 10.840645,-0.0099 v -0.0026 z"
       sodipodi:nodetypes="ccccscccc" /></g><g
     inkscape:groupmode="layer"
     id="layer4"
     inkscape:label="papillon"><path
       id="path4"
       style="fill:#1a1a1a;stroke-width:0.197476"
       inkscape:transform-center-x="-1.1024298"
       d="m 33.602084,14.552083 v 3.96875 3.96875 l 3.307291,-1.984375 2.778125,-1.667081 2.778125,1.667081 3.307291,1.984375 v -3.96875 -3.96875 L 42.465625,16.536458 39.6875,18.20354 36.909375,16.536458 Z" /></g><g
     inkscape:groupmode="layer"
     id="layer3"
     inkscape:label="arm"><rect
       style="fill:#666666;stroke-width:0.264872"
       id="rect3"
       width="15.610416"
       height="26.458334"
       x="61.647915"
       y="15.610416" /><path
       id="path3"
       style="fill:#cccccc;stroke-width:0.255387"
       d="M 61.647917 42.06875 L 61.647917 46.302083 L 73.025 46.302083 A 4.2333331 4.2333331 0 0 0 77.258333 42.06875 L 61.647917 42.06875 z " /></g><g
     inkscape:groupmode="layer"
     id="layer2"
     inkscape:label="body"><path
       id="rect2"
       style="fill:#1a1a1a;stroke-width:0.309696"
       d="m 4.7625,15.610417 v 5.932401 l 22.120336,48.591726 -0.07171,0.156906 0.180558,0.08234 2.531929,5.561626 h 20.273493 l 2.532445,-5.562662 0.179526,-0.08182 -0.07119,-0.156389 24.820441,-54.524127 H 51.703278 L 39.660104,42.065941 27.616931,15.610417 Z" /></g></svg>
